<svg width="230" height="70" viewBox="0 0 230 70" fill="none" xmlns="http://www.w3.org/2000/svg">
<path fill-rule="evenodd" clip-rule="evenodd" d="M84.6766 40.6963C88.3307 43.138 92.6269 44.4412 97.0217 44.4412C102.913 44.4343 108.561 42.091 112.726 37.9253C116.892 33.7597 119.235 28.1118 119.242 22.2206C119.242 17.8258 117.939 13.5297 115.497 9.8755C113.056 6.22134 109.585 3.37328 105.525 1.69145C101.465 0.00962985 96.997 -0.430414 92.6867 0.426971C88.3763 1.28436 84.417 3.40066 81.3094 6.50827C78.2018 9.61587 76.0854 13.5752 75.2281 17.8856C74.3707 22.1959 74.8107 26.6638 76.4925 30.724C78.1744 34.7843 81.0224 38.2547 84.6766 40.6963ZM85.2938 4.66865C88.7653 2.3491 92.8466 1.11104 97.0217 1.11104C102.618 1.11692 107.984 3.34284 111.942 7.30038C115.899 11.2579 118.125 16.6238 118.131 22.2206C118.131 26.3957 116.893 30.477 114.574 33.9484C112.254 37.4199 108.957 40.1255 105.1 41.7233C101.243 43.321 96.9983 43.739 92.9034 42.9245C88.8086 42.11 85.0472 40.0995 82.095 37.1473C79.1427 34.1951 77.1323 30.4337 76.3177 26.3389C75.5032 22.244 75.9213 17.9996 77.519 14.1423C79.1167 10.2851 81.8224 6.98819 85.2938 4.66865ZM154.81 13.8783L128.145 1.89188V44.0707H127.034V1.39244V1.11089V0.174015L154.81 12.6589V1.11089H155.921V44.0707H154.81V13.8783ZM41.6702 1.11089H42.7813V44.0707H41.6702V1.11089ZM51.2991 1.11089H52.4102V42.4043H70.7421V43.5153H51.3621V42.9597H51.2991V1.11089ZM159.865 44.4299L159.013 43.7151L195.011 1.11089H195.177H196.007H196.288V44.0707H195.177V37.7436L174.913 26.6171L159.865 44.4299ZM195.177 2.62958V36.4761L175.645 25.7512L195.177 2.62958ZM6.19135 59.1103V67.132C6.19881 67.5096 6.12834 67.8847 5.98433 68.2339C5.84032 68.5831 5.62588 68.8988 5.35438 69.1614C5.09079 69.4314 4.77478 69.6446 4.42577 69.7878C4.07676 69.9311 3.70212 70.0015 3.3249 69.9947H2.18054C2.03674 69.9831 1.90257 69.9178 1.80473 69.8118C1.7069 69.7058 1.65258 69.5668 1.65258 69.4225C1.65258 69.2783 1.7069 69.1393 1.80473 69.0332C1.90257 68.9272 2.03674 68.8619 2.18054 68.8503H3.3249C3.5507 68.8508 3.77437 68.8067 3.98307 68.7205C4.19178 68.6344 4.38141 68.5078 4.54107 68.3481C4.70074 68.1885 4.82729 67.9988 4.91348 67.7901C4.99966 67.5814 5.04378 67.3577 5.04329 67.132V59.1103C5.03199 59.0325 5.03907 58.9531 5.06399 58.8784C5.0889 58.8038 5.13094 58.7361 5.18674 58.6807C5.24254 58.6252 5.31055 58.5836 5.38532 58.5592C5.4601 58.5348 5.53955 58.5282 5.61732 58.54C5.69509 58.5282 5.77455 58.5348 5.84932 58.5592C5.92409 58.5836 5.9921 58.6252 6.0479 58.6807C6.1037 58.7361 6.14574 58.8038 6.17065 58.8784C6.19557 58.9531 6.20265 59.0325 6.19135 59.1103ZM13.0168 59.1102V69.4243C13.0063 69.502 13.0139 69.581 13.0391 69.6553C13.0643 69.7295 13.1064 69.7969 13.162 69.8522C13.2176 69.9074 13.2853 69.949 13.3597 69.9737C13.4341 69.9985 13.5132 70.0056 13.5908 69.9946H18.172C18.251 70.001 18.3304 69.9909 18.4054 69.965C18.4803 69.9391 18.5491 69.898 18.6073 69.8443C18.6656 69.7905 18.7121 69.7253 18.7439 69.6527C18.7757 69.5801 18.7921 69.5017 18.7921 69.4224C18.7921 69.3431 18.7757 69.2647 18.7439 69.1921C18.7121 69.1195 18.6656 69.0543 18.6073 69.0005C18.5491 68.9468 18.4803 68.9057 18.4054 68.8798C18.3304 68.8539 18.251 68.8439 18.172 68.8502H14.1649V64.2654H17.0276C17.1066 64.2717 17.1861 64.2617 17.261 64.2358C17.3359 64.2099 17.4047 64.1688 17.4629 64.1151C17.5212 64.0613 17.5677 63.9961 17.5995 63.9235C17.6313 63.8509 17.6477 63.7725 17.6477 63.6932C17.6477 63.6139 17.6313 63.5355 17.5995 63.4629C17.5677 63.3903 17.5212 63.3251 17.4629 63.2713C17.4047 63.2176 17.3359 63.1765 17.261 63.1506C17.1861 63.1247 17.1066 63.1147 17.0276 63.121H14.1649V59.6842H18.172C18.251 59.6906 18.3304 59.6805 18.4054 59.6547C18.4803 59.6288 18.5491 59.5877 18.6073 59.5339C18.6656 59.4802 18.7121 59.4149 18.7439 59.3423C18.7757 59.2697 18.7921 59.1913 18.7921 59.1121C18.7921 59.0328 18.7757 58.9544 18.7439 58.8818C18.7121 58.8092 18.6656 58.7439 18.6073 58.6902C18.5491 58.6364 18.4803 58.5953 18.4054 58.5695C18.3304 58.5436 18.251 58.5335 18.172 58.5399H13.5908C13.5132 58.5289 13.4341 58.536 13.3597 58.5607C13.2853 58.5854 13.2176 58.627 13.162 58.6823C13.1064 58.7376 13.0643 58.8049 13.0391 58.8792C13.0139 58.9534 13.0063 59.0325 13.0168 59.1102ZM30.0415 67.2764L31.8932 58.9918C31.9116 58.8589 31.9802 58.7381 32.0849 58.6541C32.1895 58.5701 32.3223 58.5293 32.4561 58.54C32.5337 58.529 32.6128 58.5361 32.6872 58.5608C32.7617 58.5855 32.8293 58.6272 32.8849 58.6824C32.9406 58.7377 32.9826 58.8051 33.0078 58.8793C33.033 58.9536 33.0406 59.0326 33.0301 59.1103C33.0284 59.1541 33.0222 59.1975 33.0116 59.2399L30.7303 69.517C30.7153 69.6541 30.6481 69.7803 30.5426 69.8693C30.4371 69.9582 30.3014 70.0031 30.1637 69.9947C29.8896 69.9947 29.7007 69.8317 29.5896 69.5021L27.875 64.3544L26.164 69.5021C26.0529 69.8317 25.8603 69.9947 25.5825 69.9947C25.4435 70.0001 25.3078 69.952 25.2031 69.8604C25.0984 69.7688 25.0328 69.6406 25.0196 69.5021L22.7235 59.2399C22.7188 59.1969 22.7188 59.1534 22.7235 59.1103C22.7122 59.0325 22.7193 58.9531 22.7442 58.8784C22.7691 58.8038 22.8111 58.7361 22.8669 58.6807C22.9227 58.6252 22.9907 58.5836 23.0655 58.5592C23.1403 58.5348 23.2197 58.5282 23.2975 58.54C23.4313 58.5282 23.5646 58.568 23.67 58.6514C23.7753 58.7347 23.8448 58.8552 23.8641 58.9881L25.7159 67.2801L27.3268 62.4656C27.351 62.3324 27.4211 62.212 27.525 62.1252C27.6289 62.0384 27.76 61.9909 27.8953 61.9909C28.0307 61.9909 28.1617 62.0384 28.2656 62.1252C28.3695 62.212 28.4397 62.3324 28.4638 62.4656L30.0415 67.2764ZM36.978 59.1102V69.4243C36.9675 69.502 36.9751 69.581 37.0003 69.6553C37.0255 69.7295 37.0675 69.7969 37.1231 69.8522C37.1788 69.9074 37.2464 69.949 37.3208 69.9737C37.3952 69.9985 37.4744 70.0056 37.552 69.9946H42.1368C42.2806 69.983 42.4148 69.9177 42.5126 69.8117C42.6105 69.7057 42.6648 69.5667 42.6648 69.4224C42.6648 69.2781 42.6105 69.1392 42.5126 69.0331C42.4148 68.9271 42.2806 68.8618 42.1368 68.8502H38.1371V64.2654H40.9999C41.0789 64.2717 41.1584 64.2617 41.2333 64.2358C41.3082 64.2099 41.377 64.1688 41.4352 64.1151C41.4935 64.0613 41.54 63.9961 41.5718 63.9235C41.6036 63.8509 41.62 63.7725 41.62 63.6932C41.62 63.6139 41.6036 63.5355 41.5718 63.4629C41.54 63.3903 41.4935 63.3251 41.4352 63.2713C41.377 63.2176 41.3082 63.1765 41.2333 63.1506C41.1584 63.1247 41.0789 63.1147 40.9999 63.121H38.1371V59.6842H42.1368C42.2806 59.6727 42.4148 59.6074 42.5126 59.5013C42.6105 59.3953 42.6648 59.2563 42.6648 59.1121C42.6648 58.9678 42.6105 58.8288 42.5126 58.7228C42.4148 58.6168 42.2806 58.5515 42.1368 58.5399H37.552C37.4744 58.5289 37.3952 58.536 37.3208 58.5607C37.2464 58.5854 37.1788 58.627 37.1231 58.6823C37.0675 58.7376 37.0255 58.8049 37.0003 58.8792C36.9751 58.9534 36.9675 59.0325 36.978 59.1102ZM48.9623 59.1102C48.9738 58.9664 49.0392 58.8323 49.1452 58.7344C49.2512 58.6366 49.3902 58.5823 49.5344 58.5823C49.6787 58.5823 49.8177 58.6366 49.9237 58.7344C50.0297 58.8323 50.0951 58.9664 50.1066 59.1102V68.8503H54.1174C54.2612 68.8618 54.3954 68.9271 54.4933 69.0332C54.5911 69.1392 54.6454 69.2782 54.6454 69.4224C54.6454 69.5667 54.5911 69.7057 54.4933 69.8117C54.3954 69.9177 54.2612 69.9831 54.1174 69.9946H49.5326C49.4551 70.0058 49.3761 69.9987 49.3018 69.974C49.2275 69.9493 49.16 69.9076 49.1046 69.8522C49.0493 69.7969 49.0076 69.7294 48.9829 69.6551C48.9582 69.5808 48.9511 69.5018 48.9623 69.4243V59.1102ZM67.1683 69.1613L65.1722 65.169C66.5523 64.6184 67.2412 63.5543 67.2387 61.9767C67.2416 61.5245 67.1548 61.0763 66.9831 60.658C66.8114 60.2397 66.5584 59.8596 66.2387 59.5399C65.9189 59.2202 65.5389 58.9671 65.1206 58.7955C64.7023 58.6238 64.2541 58.5369 63.8019 58.5399H60.9392C60.8615 58.5289 60.7824 58.536 60.708 58.5607C60.6336 58.5854 60.5659 58.627 60.5103 58.6823C60.4547 58.7376 60.4126 58.8049 60.3875 58.8792C60.3623 58.9534 60.3546 59.0325 60.3651 59.1102V69.4243C60.3767 69.5681 60.442 69.7022 60.548 69.8001C60.6541 69.8979 60.793 69.9522 60.9373 69.9522C61.0816 69.9522 61.2206 69.8979 61.3266 69.8001C61.4326 69.7022 61.4979 69.5681 61.5095 69.4243V65.4097H64.013L66.1462 69.6761C66.1911 69.7748 66.2644 69.8578 66.3568 69.9145C66.4491 69.9713 66.5563 69.9992 66.6647 69.9946C66.8145 69.9891 66.9568 69.9274 67.0632 69.8217C67.1696 69.716 67.2323 69.5741 67.2387 69.4243C67.2368 69.3322 67.2127 69.242 67.1683 69.1613ZM61.5095 64.2654V59.6842H63.8019C64.1105 59.6718 64.4183 59.7219 64.7071 59.8314C64.9958 59.9409 65.2594 60.1077 65.4821 60.3216C65.7048 60.5355 65.882 60.7922 66.003 61.0763C66.1241 61.3604 66.1865 61.666 66.1865 61.9748C66.1865 62.2836 66.1241 62.5892 66.003 62.8733C65.882 63.1574 65.7048 63.4141 65.4821 63.628C65.2594 63.842 64.9958 64.0087 64.7071 64.1182C64.4183 64.2277 64.1105 64.2778 63.8019 64.2654H61.5095ZM76.3603 64.2766V69.4244C76.3487 69.5682 76.2834 69.7024 76.1774 69.8002C76.0713 69.898 75.9324 69.9524 75.7881 69.9524C75.6438 69.9524 75.5048 69.898 75.3988 69.8002C75.2928 69.7024 75.2275 69.5682 75.2159 69.4244V64.2618L71.8828 59.4474C71.8097 59.3531 71.7706 59.237 71.7717 59.1178C71.7611 59.0402 71.7686 58.9612 71.7938 58.8871C71.819 58.813 71.8611 58.7457 71.9169 58.6907C71.9726 58.6357 72.0404 58.5945 72.1148 58.5702C72.1893 58.546 72.2683 58.5395 72.3457 58.5511C72.4394 58.5464 72.5327 58.5661 72.6165 58.6083C72.7002 58.6505 72.7716 58.7138 72.8235 58.7919L75.7862 63.0989L78.749 58.7919C78.8009 58.7138 78.8722 58.6505 78.956 58.6083C79.0397 58.5661 79.133 58.5464 79.2267 58.5511C79.3043 58.5401 79.3835 58.5473 79.4579 58.572C79.5323 58.5967 79.5999 58.6383 79.6556 58.6936C79.7112 58.7488 79.7532 58.8162 79.7784 58.8905C79.8036 58.9647 79.8112 59.0438 79.8008 59.1215C79.8024 59.2408 79.7661 59.3575 79.6971 59.4548L76.3603 64.2766ZM103.419 58.5606C103.344 58.5359 103.265 58.5288 103.188 58.54C103.094 58.5356 103.001 58.5555 102.917 58.5976C102.834 58.6398 102.762 58.7029 102.71 58.7807L99.7474 63.2248L96.8143 58.8252C96.7634 58.737 96.6899 58.6641 96.6013 58.6139C96.5127 58.5638 96.4124 58.5383 96.3106 58.54C96.2331 58.5288 96.1541 58.5359 96.0798 58.5606C96.0055 58.5853 95.938 58.627 95.8827 58.6824C95.8273 58.7377 95.7856 58.8052 95.7609 58.8795C95.7362 58.9538 95.7291 59.0328 95.7403 59.1103V69.4244C95.7519 69.5682 95.8172 69.7023 95.9232 69.8002C96.0292 69.898 96.1682 69.9523 96.3125 69.9523C96.4567 69.9523 96.5957 69.898 96.7017 69.8002C96.8078 69.7023 96.8731 69.5682 96.8846 69.4244V60.9954L99.2067 64.4951C99.2606 64.5933 99.3384 64.6764 99.4329 64.7366C99.5274 64.7968 99.6356 64.8322 99.7474 64.8395C99.8582 64.832 99.9652 64.7964 100.059 64.7362C100.152 64.6759 100.228 64.593 100.281 64.4951L102.614 61.0028V69.4244C102.625 69.5682 102.691 69.7023 102.797 69.8002C102.903 69.898 103.042 69.9523 103.186 69.9523C103.33 69.9523 103.469 69.898 103.575 69.8002C103.681 69.7023 103.747 69.5682 103.758 69.4244V59.1103C103.769 59.0328 103.762 58.9538 103.738 58.8795C103.713 58.8052 103.671 58.7377 103.616 58.6824C103.56 58.627 103.493 58.5853 103.419 58.5606ZM115.739 69.4245C115.75 69.5017 115.743 69.5803 115.718 69.6543C115.694 69.7282 115.652 69.7955 115.598 69.8508C115.543 69.9061 115.476 69.9478 115.402 69.9728C115.328 69.9978 115.249 70.0054 115.172 69.9949C115.05 70.0038 114.928 69.9694 114.829 69.8976C114.729 69.8258 114.658 69.7213 114.628 69.6023L113.802 67.1321H109.658L108.832 69.6023C108.802 69.7206 108.731 69.8247 108.633 69.8964C108.534 69.9681 108.413 70.0029 108.291 69.9949C108.214 70.006 108.135 69.999 108.06 69.9742C107.986 69.9495 107.919 69.9078 107.863 69.8525C107.808 69.7971 107.766 69.7296 107.742 69.6553C107.717 69.581 107.71 69.502 107.721 69.4245C107.719 69.3618 107.728 69.2992 107.747 69.2393L111.158 59.0179C111.186 58.8869 111.258 58.7697 111.363 58.6861C111.468 58.6024 111.598 58.5574 111.732 58.5587C111.862 58.5548 111.99 58.5968 112.093 58.6773C112.196 58.7578 112.267 58.8717 112.295 58.9994L115.713 69.2579C115.73 69.3118 115.739 69.368 115.739 69.4245ZM111.728 60.9066L110.039 65.9877H113.42L111.728 60.9066ZM126.001 59.1103V67.2097L121.375 58.877C121.329 58.7761 121.254 58.6906 121.16 58.6309C121.066 58.5712 120.957 58.5396 120.846 58.54C120.768 58.5288 120.689 58.5359 120.615 58.5606C120.541 58.5853 120.473 58.627 120.418 58.6824C120.363 58.7377 120.321 58.8052 120.296 58.8795C120.271 58.9538 120.264 59.0328 120.276 59.1103V69.4244C120.287 69.5682 120.352 69.7023 120.458 69.8002C120.564 69.898 120.703 69.9523 120.848 69.9523C120.992 69.9523 121.131 69.898 121.237 69.8002C121.343 69.7023 121.408 69.5682 121.42 69.4244V61.3139L126.079 69.7058C126.125 69.7975 126.197 69.8737 126.286 69.925C126.374 69.9763 126.476 70.0006 126.579 69.9947C126.656 70.0059 126.735 69.9988 126.81 69.9741C126.884 69.9494 126.951 69.9077 127.007 69.8523C127.062 69.797 127.104 69.7295 127.128 69.6552C127.153 69.5809 127.16 69.5019 127.149 69.4244V59.1103C127.149 58.9581 127.089 58.8121 126.981 58.7044C126.873 58.5968 126.727 58.5363 126.575 58.5363C126.423 58.5363 126.277 58.5968 126.169 58.7044C126.062 58.8121 126.001 58.9581 126.001 59.1103ZM139.13 59.1102V66.5578C139.13 67.4693 138.768 68.3435 138.123 68.988C137.479 69.6325 136.604 69.9946 135.693 69.9946C134.781 69.9946 133.907 69.6325 133.263 68.988C132.618 68.3435 132.256 67.4693 132.256 66.5578V59.1102C132.268 58.9664 132.333 58.8323 132.439 58.7344C132.545 58.6366 132.684 58.5823 132.828 58.5823C132.973 58.5823 133.112 58.6366 133.218 58.7344C133.324 58.8323 133.389 58.9664 133.4 59.1102V66.5578C133.4 67.1658 133.642 67.7489 134.072 68.1788C134.502 68.6087 135.085 68.8503 135.693 68.8503C136.301 68.8503 136.884 68.6087 137.314 68.1788C137.744 67.7489 137.985 67.1658 137.985 66.5578V59.1102C137.997 58.9664 138.062 58.8323 138.168 58.7344C138.274 58.6366 138.413 58.5823 138.557 58.5823C138.702 58.5823 138.841 58.6366 138.947 58.7344C139.053 58.8323 139.118 58.9664 139.13 59.1102ZM144.796 59.1103V69.4244H144.811C144.822 69.5682 144.888 69.7023 144.994 69.8002C145.1 69.898 145.239 69.9523 145.383 69.9523C145.527 69.9523 145.666 69.898 145.772 69.8002C145.878 69.7023 145.944 69.5682 145.955 69.4244V64.2655H149.981C150.125 64.2539 150.259 64.1886 150.357 64.0826C150.454 63.9766 150.509 63.8376 150.509 63.6933C150.509 63.549 150.454 63.4101 150.357 63.304C150.259 63.198 150.125 63.1327 149.981 63.1211H145.955V59.6843H149.981C150.125 59.6728 150.259 59.6075 150.357 59.5014C150.454 59.3954 150.509 59.2564 150.509 59.1122C150.509 58.9679 150.454 58.8289 150.357 58.7229C150.259 58.6169 150.125 58.5516 149.981 58.54H145.366C145.289 58.5288 145.21 58.5359 145.135 58.5606C145.061 58.5853 144.994 58.627 144.938 58.6824C144.883 58.7377 144.841 58.8052 144.817 58.8795C144.792 58.9538 144.785 59.0328 144.796 59.1103ZM163.683 69.4245C163.695 69.502 163.688 69.581 163.663 69.6553C163.638 69.7296 163.596 69.7971 163.541 69.8525C163.486 69.9078 163.418 69.9495 163.344 69.9742C163.27 69.999 163.191 70.006 163.113 69.9949C162.991 70.0031 162.869 69.9684 162.77 69.8967C162.671 69.825 162.599 69.7209 162.569 69.6023L161.746 67.1321H157.599L156.777 69.6023C156.746 69.7213 156.675 69.8258 156.576 69.8976C156.476 69.9694 156.355 70.0038 156.232 69.9949C156.155 70.006 156.076 69.999 156.001 69.9742C155.927 69.9495 155.86 69.9078 155.804 69.8525C155.749 69.7971 155.707 69.7296 155.682 69.6553C155.658 69.581 155.651 69.502 155.662 69.4245C155.662 69.3619 155.671 69.2996 155.688 69.2393L159.08 59.0179C159.109 58.8873 159.181 58.7704 159.286 58.6869C159.39 58.6033 159.52 58.5581 159.654 58.5587C159.785 58.5548 159.912 58.5968 160.015 58.6773C160.118 58.7578 160.189 58.8717 160.217 58.9994L163.639 69.2579C163.662 69.3108 163.677 69.367 163.683 69.4245ZM159.673 60.9066L157.98 65.9877H161.365L159.673 60.9066ZM174.161 58.5696C174.086 58.5438 174.006 58.5337 173.927 58.5401H171.635C171.259 58.5396 170.886 58.6133 170.539 58.757C170.191 58.9007 169.875 59.1115 169.609 59.3775C169.343 59.6434 169.133 59.9592 168.989 60.3067C168.845 60.6543 168.771 61.0267 168.772 61.4028V67.132C168.771 67.5081 168.845 67.8806 168.989 68.2281C169.133 68.5757 169.343 68.8915 169.609 69.1574C169.875 69.4233 170.191 69.6342 170.539 69.7779C170.886 69.9215 171.259 69.9953 171.635 69.9948H173.927C174.006 70.0012 174.086 69.9911 174.161 69.9652C174.235 69.9393 174.304 69.8982 174.362 69.8445C174.421 69.7907 174.467 69.7255 174.499 69.6529C174.531 69.5803 174.547 69.5019 174.547 69.4226C174.547 69.3433 174.531 69.2649 174.499 69.1923C174.467 69.1197 174.421 69.0545 174.362 69.0007C174.304 68.947 174.235 68.9059 174.161 68.88C174.086 68.8541 174.006 68.8441 173.927 68.8504H171.635C171.179 68.8504 170.742 68.6694 170.42 68.3471C170.097 68.0249 169.916 67.5878 169.916 67.132V61.4028C169.916 61.177 169.96 60.9534 170.046 60.7446C170.132 60.5359 170.259 60.3463 170.419 60.1867C170.578 60.027 170.768 59.9004 170.976 59.8142C171.185 59.7281 171.409 59.6839 171.635 59.6844H173.927C174.006 59.6908 174.086 59.6807 174.161 59.6548C174.235 59.629 174.304 59.5879 174.362 59.5341C174.421 59.4804 174.467 59.4151 174.499 59.3425C174.531 59.2699 174.547 59.1915 174.547 59.1123C174.547 59.033 174.531 58.9546 174.499 58.882C174.467 58.8094 174.421 58.7441 174.362 58.6904C174.304 58.6366 174.235 58.5955 174.161 58.5696ZM180.178 59.1102C180.168 59.0325 180.176 58.9534 180.201 58.8792C180.226 58.8049 180.268 58.7376 180.324 58.6823C180.379 58.627 180.447 58.5854 180.521 58.5607C180.596 58.536 180.675 58.5289 180.753 58.5399H186.482C186.626 58.5515 186.76 58.6168 186.858 58.7228C186.955 58.8288 187.01 58.9678 187.01 59.1121C187.01 59.2563 186.955 59.3953 186.858 59.5013C186.76 59.6074 186.626 59.6727 186.482 59.6842H184.189V69.4243C184.178 69.5681 184.112 69.7022 184.006 69.8001C183.9 69.8979 183.761 69.9522 183.617 69.9522C183.473 69.9522 183.334 69.8979 183.228 69.8001C183.122 69.7022 183.057 69.5681 183.045 69.4243V59.6842H180.753C180.675 59.6954 180.595 59.6882 180.52 59.6633C180.446 59.6384 180.378 59.5964 180.322 59.5407C180.266 59.485 180.224 59.4171 180.199 59.3424C180.174 59.2677 180.167 59.1882 180.178 59.1102ZM199.036 66.5579V59.1103C199.036 58.958 198.976 58.812 198.868 58.7044C198.761 58.5967 198.615 58.5363 198.462 58.5363C198.31 58.5363 198.164 58.5967 198.056 58.7044C197.949 58.812 197.888 58.958 197.888 59.1103V66.5579C197.901 66.8664 197.851 67.1743 197.741 67.463C197.632 67.7518 197.465 68.0154 197.251 68.2381C197.037 68.4608 196.78 68.638 196.496 68.759C196.212 68.88 195.906 68.9424 195.598 68.9424C195.289 68.9424 194.983 68.88 194.699 68.759C194.415 68.638 194.158 68.4608 193.944 68.2381C193.731 68.0154 193.564 67.7518 193.454 67.463C193.345 67.1743 193.295 66.8664 193.307 66.5579V59.1103C193.307 58.958 193.247 58.812 193.139 58.7044C193.031 58.5967 192.885 58.5363 192.733 58.5363C192.581 58.5363 192.435 58.5967 192.327 58.7044C192.22 58.812 192.159 58.958 192.159 59.1103V66.5579C192.188 67.4503 192.563 68.2964 193.205 68.9174C193.847 69.5383 194.705 69.8855 195.598 69.8855C196.491 69.8855 197.349 69.5383 197.99 68.9174C198.632 68.2964 199.007 67.4503 199.036 66.5579ZM208.95 65.1691L210.947 69.1614C210.991 69.2421 211.015 69.3323 211.017 69.4244C211.016 69.4988 211.001 69.5723 210.971 69.6404C210.941 69.7085 210.897 69.7699 210.843 69.8206C210.792 69.876 210.73 69.9201 210.661 69.9501C210.592 69.9801 210.518 69.9953 210.443 69.9947C210.334 69.999 210.227 69.9711 210.134 69.9144C210.041 69.8578 209.967 69.7749 209.921 69.6762L207.791 65.4099H205.288V69.4244C205.276 69.5682 205.211 69.7023 205.105 69.8002C204.999 69.898 204.86 69.9523 204.716 69.9523C204.571 69.9523 204.432 69.898 204.326 69.8002C204.22 69.7023 204.155 69.5682 204.143 69.4244V59.1103C204.132 59.0328 204.139 58.9538 204.164 58.8795C204.189 58.8052 204.23 58.7377 204.286 58.6824C204.341 58.627 204.409 58.5853 204.483 58.5606C204.557 58.5359 204.636 58.5288 204.714 58.54H207.58C208.032 58.538 208.48 58.6256 208.898 58.7976C209.316 58.9696 209.695 59.2227 210.015 59.5422C210.334 59.8618 210.587 60.2414 210.759 60.6593C210.931 61.0771 211.019 61.5249 211.017 61.9768C211.017 63.5544 210.328 64.6185 208.95 65.1691ZM205.288 59.6843V64.2655H207.58C207.889 64.2779 208.197 64.2279 208.485 64.1183C208.774 64.0088 209.038 63.8421 209.26 63.6282C209.483 63.4142 209.66 63.1575 209.781 62.8734C209.902 62.5893 209.965 62.2837 209.965 61.9749C209.965 61.6661 209.902 61.3605 209.781 61.0764C209.66 60.7923 209.483 60.5356 209.26 60.3217C209.038 60.1078 208.774 59.941 208.485 59.8315C208.197 59.722 207.889 59.6719 207.58 59.6843H205.288ZM216.694 59.1102V69.4243C216.684 69.502 216.691 69.581 216.717 69.6553C216.742 69.7295 216.784 69.7969 216.839 69.8522C216.895 69.9074 216.963 69.949 217.037 69.9737C217.112 69.9985 217.191 70.0056 217.268 69.9946H221.861C221.94 70.001 222.019 69.9909 222.094 69.965C222.169 69.9391 222.238 69.898 222.296 69.8443C222.354 69.7905 222.401 69.7253 222.432 69.6527C222.464 69.5801 222.481 69.5017 222.481 69.4224C222.481 69.3431 222.464 69.2647 222.432 69.1921C222.401 69.1195 222.354 69.0543 222.296 69.0005C222.238 68.9468 222.169 68.9057 222.094 68.8798C222.019 68.8539 221.94 68.8439 221.861 68.8502H217.853V64.2654H220.716C220.795 64.2717 220.875 64.2617 220.95 64.2358C221.025 64.2099 221.093 64.1688 221.152 64.1151C221.21 64.0613 221.256 63.9961 221.288 63.9235C221.32 63.8509 221.336 63.7725 221.336 63.6932C221.336 63.6139 221.32 63.5355 221.288 63.4629C221.256 63.3903 221.21 63.3251 221.152 63.2713C221.093 63.2176 221.025 63.1765 220.95 63.1506C220.875 63.1247 220.795 63.1147 220.716 63.121H217.842V59.6842H221.849C221.928 59.6906 222.008 59.6805 222.083 59.6547C222.158 59.6288 222.227 59.5877 222.285 59.5339C222.343 59.4802 222.39 59.4149 222.421 59.3423C222.453 59.2697 222.47 59.1913 222.47 59.1121C222.47 59.0328 222.453 58.9544 222.421 58.8818C222.39 58.8092 222.343 58.7439 222.285 58.6902C222.227 58.6364 222.158 58.5953 222.083 58.5695C222.008 58.5436 221.928 58.5335 221.849 58.5399H217.268C217.191 58.5289 217.112 58.536 217.037 58.5607C216.963 58.5854 216.895 58.627 216.839 58.6823C216.784 58.7376 216.742 58.8049 216.717 58.8792C216.691 58.9534 216.684 59.0325 216.694 59.1102ZM0.00887654 1.11089H0.00666588V44.0707H1.11769V2.22402L16.524 13.952L16.5419 13.9285H17.1869L17.2047 13.9508L31.8561 2.26308V44.0707H32.9672V1.2008L33.028 1.09747L32.1379 0.572899L32.0718 0.684973L32.0644 0.675699L16.8556 12.8081L0.901356 0.663017L0.866809 0.708398L0.818675 0.62469L0 1.09545L0.00887654 1.11089ZM216.383 0.0072974C209.021 0.0072974 203.029 5.19951 203.029 11.5842C203.029 17.9763 209.021 23.1612 216.383 23.1612L217.45 23.1612L217.45 23.1758C223.703 23.1758 228.796 27.7823 228.805 33.4492C228.805 39.0229 223.231 43.5596 216.383 43.5596C209.632 43.5596 204.14 39.0229 204.14 33.4492H203.029C203.029 39.6377 209.021 44.6706 216.383 44.6706C223.84 44.6706 229.906 39.6456 229.916 33.4639C229.916 27.1681 224.323 22.05 217.45 22.0648L217.45 22.0502L216.383 22.0502C209.632 22.0502 204.14 17.3543 204.14 11.5843C204.14 5.81437 209.632 1.11833 216.383 1.11833C223.231 1.11833 228.805 5.81428 228.805 11.5842H229.916C229.916 5.19951 223.846 0.0072974 216.383 0.0072974Z" fill="#1E1E1E"/>
</svg>
